REM DIRINDEX 1\2,1\3,1\4,1\5\6,1\5\7,1\8
REM DIRNAME cjc115,folder01,folder02,folder03,folder04,folder05,folder06,folder07
TITLE ""
FILE "099 【099】Unit6 (1117 reliance_1128 breakup).mp3" MP3
  TRACK 01 AUDIO
    TITLE "0:"
    INDEX 01 00:00:00
  TRACK 02 AUDIO
    TITLE "2:cjc115_3874"
    INDEX 01 00:00:07
  TRACK 03 AUDIO
    TITLE "0:"
    INDEX 01 00:01:36
  TRACK 04 AUDIO
    TITLE "3:cjc115_3875"
    INDEX 01 00:01:48
  TRACK 05 AUDIO
    TITLE "0:"
    INDEX 01 00:02:47
  TRACK 06 AUDIO
    TITLE "4:cjc115_3876"
    INDEX 01 00:02:55
  TRACK 07 AUDIO
    TITLE "0:"
    INDEX 01 00:06:51
  TRACK 08 AUDIO
    TITLE "2:cjc115_3877"
    INDEX 01 00:07:60
  TRACK 09 AUDIO
    TITLE "0:"
    INDEX 01 00:09:02
  TRACK 10 AUDIO
    TITLE "3:cjc115_3878"
    INDEX 01 00:09:12
  TRACK 11 AUDIO
    TITLE "0:"
    INDEX 01 00:10:70
  TRACK 12 AUDIO
    TITLE "4:cjc115_3879"
    INDEX 01 00:10:74
  TRACK 13 AUDIO
    TITLE "0:"
    INDEX 01 00:14:00
  TRACK 14 AUDIO
    TITLE "2:cjc115_3880"
    INDEX 01 00:15:09
  TRACK 15 AUDIO
    TITLE "0:"
    INDEX 01 00:16:24
  TRACK 16 AUDIO
    TITLE "3:cjc115_3881"
    INDEX 01 00:16:36
  TRACK 17 AUDIO
    TITLE "0:"
    INDEX 01 00:18:54
  TRACK 18 AUDIO
    TITLE "4:cjc115_3882"
    INDEX 01 00:18:60
  TRACK 19 AUDIO
    TITLE "0:"
    INDEX 01 00:21:39
  TRACK 20 AUDIO
    TITLE "2:cjc115_3883"
    INDEX 01 00:22:52
  TRACK 21 AUDIO
    TITLE "0:"
    INDEX 01 00:23:53
  TRACK 22 AUDIO
    TITLE "3:cjc115_3884"
    INDEX 01 00:23:65
  TRACK 23 AUDIO
    TITLE "0:"
    INDEX 01 00:25:33
  TRACK 24 AUDIO
    TITLE "4:cjc115_3885"
    INDEX 01 00:25:41
  TRACK 25 AUDIO
    TITLE "0:"
    INDEX 01 00:28:49
  TRACK 26 AUDIO
    TITLE "2:cjc115_3886"
    INDEX 01 00:29:52
  TRACK 27 AUDIO
    TITLE "0:"
    INDEX 01 00:30:73
  TRACK 28 AUDIO
    TITLE "3:cjc115_3887"
    INDEX 01 00:31:08
  TRACK 29 AUDIO
    TITLE "0:"
    INDEX 01 00:32:25
  TRACK 30 AUDIO
    TITLE "4:cjc115_3888"
    INDEX 01 00:32:33
  TRACK 31 AUDIO
    TITLE "0:"
    INDEX 01 00:37:08
  TRACK 32 AUDIO
    TITLE "2:cjc115_3889"
    INDEX 01 00:38:18
  TRACK 33 AUDIO
    TITLE "0:"
    INDEX 01 00:39:29
  TRACK 34 AUDIO
    TITLE "3:cjc115_3890"
    INDEX 01 00:39:41
  TRACK 35 AUDIO
    TITLE "0:"
    INDEX 01 00:41:71
  TRACK 36 AUDIO
    TITLE "4:cjc115_3891"
    INDEX 01 00:42:02
  TRACK 37 AUDIO
    TITLE "0:"
    INDEX 01 00:47:01
  TRACK 38 AUDIO
    TITLE "2:cjc115_3892"
    INDEX 01 00:48:08
  TRACK 39 AUDIO
    TITLE "0:"
    INDEX 01 00:49:29
  TRACK 40 AUDIO
    TITLE "3:cjc115_3893"
    INDEX 01 00:49:41
  TRACK 41 AUDIO
    TITLE "0:"
    INDEX 01 00:51:20
  TRACK 42 AUDIO
    TITLE "4:cjc115_3894"
    INDEX 01 00:51:22
  TRACK 43 AUDIO
    TITLE "0:"
    INDEX 01 00:55:20
  TRACK 44 AUDIO
    TITLE "2:cjc115_3895"
    INDEX 01 00:56:27
  TRACK 45 AUDIO
    TITLE "0:"
    INDEX 01 00:57:45
  TRACK 46 AUDIO
    TITLE "3:cjc115_3896"
    INDEX 01 00:57:54
  TRACK 47 AUDIO
    TITLE "0:"
    INDEX 01 00:59:26
  TRACK 48 AUDIO
    TITLE "4:cjc115_3897"
    INDEX 01 00:59:28
  TRACK 49 AUDIO
    TITLE "0:"
    INDEX 01 01:03:31
  TRACK 50 AUDIO
    TITLE "2:cjc115_3898"
    INDEX 01 01:04:37
  TRACK 51 AUDIO
    TITLE "0:"
    INDEX 01 01:05:38
  TRACK 52 AUDIO
    TITLE "3:cjc115_3899"
    INDEX 01 01:05:50
  TRACK 53 AUDIO
    TITLE "0:"
    INDEX 01 01:06:71
  TRACK 54 AUDIO
    TITLE "4:cjc115_3900"
    INDEX 01 01:07:02
  TRACK 55 AUDIO
    TITLE "0:"
    INDEX 01 01:10:35
  TRACK 56 AUDIO
    TITLE "2:cjc115_3901"
    INDEX 01 01:11:43
  TRACK 57 AUDIO
    TITLE "0:"
    INDEX 01 01:12:64
  TRACK 58 AUDIO
    TITLE "3:cjc115_3902"
    INDEX 01 01:13:00
  TRACK 59 AUDIO
    TITLE "0:"
    INDEX 01 01:14:53
  TRACK 60 AUDIO
    TITLE "4:cjc115_3903"
    INDEX 01 01:14:61
  TRACK 61 AUDIO
    TITLE "0:"
    INDEX 01 01:18:70
  TRACK 62 AUDIO
    TITLE "2:cjc115_3904"
    INDEX 01 01:20:02
  TRACK 63 AUDIO
    TITLE "0:"
    INDEX 01 01:21:08
  TRACK 64 AUDIO
    TITLE "3:cjc115_3905"
    INDEX 01 01:21:18
  TRACK 65 AUDIO
    TITLE "0:"
    INDEX 01 01:23:58
  TRACK 66 AUDIO
    TITLE "4:cjc115_3906"
    INDEX 01 01:23:63
  TRACK 67 AUDIO
    TITLE "0:"
    INDEX 01 01:27:40
  TRACK 68 AUDIO
    TITLE "2:cjc115_3907"
    INDEX 01 01:28:49
  TRACK 69 AUDIO
    TITLE "0:"
    INDEX 01 01:29:46
  TRACK 70 AUDIO
    TITLE "3:cjc115_3908"
    INDEX 01 01:29:68
  TRACK 71 AUDIO
    TITLE "0:"
    INDEX 01 01:32:74
  TRACK 72 AUDIO
    TITLE "4:cjc115_3909"
    INDEX 01 01:33:05
  TRACK 73 AUDIO
    TITLE "0:"
    INDEX 01 01:36:39
